<svg width="40" height="40" viewBox="0 0 40 40" fill="none" xmlns="http://www.w3.org/2000/svg">
<path d="M9.92969 31.5967H29.4297" stroke="white" stroke-width="1.5" stroke-linecap="round"/>
<path fill-rule="evenodd" clip-rule="evenodd" d="M9.86883 24.1199C9.5213 24.3453 9.42226 24.8097 9.64763 25.1572C9.87299 25.5048 10.3374 25.6038 10.685 25.3784L26.0622 15.4067C26.0486 15.5966 26.0244 15.8083 25.9898 16.0396C25.861 16.9017 25.6027 17.9439 25.3082 18.9659C25.0151 19.9832 24.6925 20.959 24.4426 21.6821C24.3178 22.0431 24.2115 22.34 24.1366 22.5462C24.0991 22.6492 24.0695 22.7296 24.0494 22.7838L24.0265 22.8452L24.0208 22.8605L24.0194 22.8641L24.0191 22.8649L24.0191 22.865L24.0191 22.8651C23.8729 23.2526 24.0686 23.6853 24.4561 23.8315C24.8437 23.9776 25.2764 23.782 25.4226 23.3944L24.7208 23.1297C25.4226 23.3944 25.4226 23.3943 25.4226 23.3942L25.4228 23.3938L25.4233 23.3926L25.425 23.388L25.4314 23.3708L25.4558 23.3053C25.477 23.2482 25.5077 23.1648 25.5463 23.0586C25.6236 22.8461 25.7326 22.5417 25.8603 22.1721C26.1154 21.434 26.4469 20.4318 26.7496 19.3812C27.0509 18.3353 27.3301 17.2198 27.4733 16.2614C27.5448 15.7833 27.5861 15.3209 27.5728 14.9138C27.5602 14.5314 27.4976 14.088 27.2685 13.7334C27.2681 13.7328 27.2677 13.7321 27.2672 13.7314C27.0371 13.3765 26.657 13.1379 26.3123 12.9701C25.9461 12.7919 25.5071 12.641 25.0415 12.5112C24.108 12.251 22.9756 12.0509 21.8978 11.8993C20.8151 11.7471 19.7648 11.6408 18.9868 11.5727C18.5974 11.5386 18.275 11.5139 18.0494 11.4977C17.9366 11.4896 17.848 11.4836 17.7873 11.4797L17.7175 11.4752L17.6992 11.4741L17.6943 11.4738L17.6929 11.4737L17.6925 11.4737C17.6924 11.4737 17.6923 11.4737 17.6477 12.2223L17.6923 11.4737C17.2788 11.449 16.9237 11.7643 16.899 12.1777L17.6031 12.971L17.6032 12.971L17.6041 12.9711L17.6079 12.9713L17.6242 12.9723L17.6896 12.9765C17.7473 12.9803 17.8327 12.986 17.9421 12.9939C18.1609 13.0096 18.4754 13.0336 18.8559 13.067C19.618 13.1337 20.6406 13.2373 21.6889 13.3847C22.7422 13.5328 23.7991 13.7221 24.6387 13.9561C24.864 14.0189 25.0671 14.0832 25.246 14.1482L9.86883 24.1199Z" fill="white"/>
</svg>
