<svg width="28" height="27" viewBox="0 0 28 27" fill="none" xmlns="http://www.w3.org/2000/svg">
<path d="M0 13.3019C0 6.01398 5.90803 0.105957 13.1959 0.105957H14.6498C21.9377 0.105957 27.8457 6.01398 27.8457 13.3019C27.8457 20.5898 21.9377 26.4978 14.6498 26.4978H13.1959C5.90803 26.4978 0 20.5898 0 13.3019Z" fill="black"/>
<path fill-rule="evenodd" clip-rule="evenodd" d="M7.31146 16.6962C6.96392 16.9215 6.86488 17.386 7.09025 17.7335C7.31562 18.081 7.78005 18.1801 8.12759 17.9547L19.469 10.6001C19.4648 10.6306 19.4604 10.6617 19.4556 10.6934C19.3597 11.3355 19.1663 12.117 18.9438 12.8891C18.7228 13.6565 18.4792 14.3933 18.2903 14.9398C18.196 15.2126 18.1157 15.4368 18.0592 15.5924C18.0309 15.6702 18.0086 15.7307 17.9935 15.7715L17.9763 15.8176L17.9721 15.8289L17.9711 15.8316L17.9709 15.8321L17.9709 15.8321L17.9708 15.8322C17.8247 16.2197 18.0204 16.6524 18.4079 16.7986C18.7955 16.9448 19.2281 16.7491 19.3743 16.3615L18.6726 16.0968C19.3743 16.3615 19.3744 16.3615 19.3744 16.3614L19.3745 16.361L19.3749 16.36L19.3763 16.3564L19.3812 16.3431L19.3999 16.293C19.4161 16.2493 19.4395 16.1858 19.4689 16.1048C19.5278 15.9429 19.6108 15.7111 19.708 15.4299C19.9021 14.8683 20.1545 14.1051 20.3852 13.3044C20.6146 12.5084 20.8288 11.6536 20.9392 10.9151C20.9942 10.5471 21.0271 10.1845 21.0165 9.8605C21.0066 9.56056 20.9577 9.18266 20.7557 8.87118C20.5537 8.5597 20.2286 8.36086 19.9588 8.22953C19.6674 8.08768 19.3229 7.9698 18.9644 7.86988C18.2452 7.66942 17.3774 7.51633 16.557 7.40098C15.7318 7.28495 14.932 7.20405 14.3401 7.1522C14.0437 7.12623 13.7983 7.10745 13.6264 7.09512C13.5405 7.08896 13.4729 7.08441 13.4265 7.08138L13.373 7.07796L13.3589 7.07708L13.355 7.07685L13.3539 7.07679L13.3536 7.07677C13.3535 7.07676 13.3534 7.07676 13.3088 7.82543L13.3534 7.07676C12.9399 7.05212 12.5848 7.36735 12.5601 7.78083L13.2642 8.5741L13.2642 8.5741L13.2648 8.57414L13.2676 8.57431L13.2797 8.57505L13.3288 8.57819C13.3722 8.58102 13.4366 8.58536 13.5191 8.59128C13.6842 8.60312 13.9217 8.62129 14.2092 8.64648C14.7852 8.69694 15.5573 8.77517 16.3482 8.88637C17.1439 8.99826 17.9363 9.1405 18.5617 9.3148C18.593 9.32353 18.6237 9.33228 18.6537 9.34104L7.31146 16.6962Z" fill="white"/>
</svg>
