<svg width="16" height="17" viewBox="0 0 16 17" fill="none" xmlns="http://www.w3.org/2000/svg">
<g clip-path="url(#clip0_3643_898)">
<path fill-rule="evenodd" clip-rule="evenodd" d="M1.86225 13.5552C1.51471 13.7806 1.41567 14.245 1.64104 14.5926C1.86641 14.9401 2.33084 15.0391 2.67838 14.8138L11.8903 8.84009C11.8046 9.3263 11.662 9.89208 11.4998 10.4551C11.3164 11.0915 11.1143 11.7031 10.9574 12.157C10.8791 12.3835 10.8124 12.5697 10.7655 12.6988C10.7421 12.7633 10.7236 12.8135 10.7111 12.8472L10.6969 12.8853L10.6934 12.8945L10.6926 12.8966L10.6925 12.897L10.6925 12.8971C10.5463 13.2846 10.742 13.7173 11.1295 13.8635C11.5171 14.0097 11.9498 13.814 12.096 13.4264L11.3942 13.1617C12.096 13.4264 12.096 13.4264 12.096 13.4263L12.0961 13.426L12.0965 13.4251L12.0976 13.422L12.1018 13.4108L12.1175 13.3687C12.1311 13.3321 12.1507 13.2789 12.1753 13.2112C12.2245 13.0758 12.2938 12.8821 12.3751 12.6471C12.5372 12.1781 12.7482 11.5401 12.9412 10.8703C13.1328 10.2053 13.313 9.48709 13.4061 8.86395C13.4525 8.55351 13.481 8.24321 13.4718 7.96282C13.4637 7.71402 13.4242 7.38357 13.2507 7.10037C13.2455 7.09166 13.2402 7.08302 13.2346 7.07444C13.229 7.06573 13.2232 7.05717 13.2172 7.04877C13.0294 6.77524 12.7441 6.60457 12.5204 6.49572C12.2682 6.37295 11.9733 6.27237 11.6709 6.1881C11.064 6.01894 10.3348 5.8905 9.64941 5.79413C8.95915 5.69707 8.2906 5.62947 7.79625 5.58616C7.54857 5.56446 7.34345 5.54876 7.19976 5.53845C7.12788 5.5333 7.07131 5.52949 7.03238 5.52695L6.98751 5.52408L6.97553 5.52334L6.97226 5.52314L6.97131 5.52308L6.97101 5.52307C6.97091 5.52306 6.97083 5.52306 6.92623 6.27173L6.97083 5.52306C6.55735 5.49842 6.20219 5.81365 6.17755 6.22713C6.15292 6.64058 6.46811 6.99573 6.88156 7.0204L6.88163 7.0204L6.88205 7.02043L6.8843 7.02056L6.89419 7.02117L6.93469 7.02376C6.97062 7.02611 7.02398 7.0297 7.09245 7.03461C7.22943 7.04443 7.4266 7.05952 7.66534 7.08043C8.14382 7.12235 8.78465 7.18729 9.44055 7.27952C10.0205 7.36107 10.5951 7.46163 11.0739 7.58171L1.86225 13.5552Z" fill="black"/>
</g>
<defs>
<clipPath id="clip0_3643_898">
<rect width="16" height="16" fill="white" transform="translate(0 0.916992)"/>
</clipPath>
</defs>
</svg>
