<svg width="42" height="42" viewBox="0 0 42 42" fill="none" xmlns="http://www.w3.org/2000/svg">
<path d="M20.5913 37.8335L17.1745 27.5835H3.50732L6.92411 37.8335H20.5913ZM20.5913 37.8335H27.4248" stroke="black" stroke-width="2.8125" stroke-linecap="round" stroke-linejoin="round"/>
<path d="M20.591 22.4585V21.6043C20.591 18.3831 20.591 16.7724 19.5902 15.7717C18.5894 14.771 16.9788 14.771 13.7574 14.771C10.536 14.771 8.92533 14.771 7.92459 15.7717C6.92383 16.7724 6.92383 18.3831 6.92383 21.6043V22.4585" stroke="black" stroke-width="2.8125" stroke-linecap="round" stroke-linejoin="round"/>
<path d="M32.5499 22.4582C32.5499 24.3452 31.0202 25.8748 29.1331 25.8748C27.246 25.8748 25.7163 24.3452 25.7163 22.4582C25.7163 20.5711 27.246 19.0415 29.1331 19.0415C31.0202 19.0415 32.5499 20.5711 32.5499 22.4582Z" stroke="black" stroke-width="2.8125"/>
<path d="M17.1744 7.08317C17.1744 8.97014 15.6446 10.4998 13.7576 10.4998C11.8706 10.4998 10.3408 8.97014 10.3408 7.08317C10.3408 5.1962 11.8706 3.6665 13.7576 3.6665C15.6446 3.6665 17.1744 5.1962 17.1744 7.08317Z" stroke="black" stroke-width="2.8125"/>
<path d="M24.0078 30.146H34.2582C36.1453 30.146 37.675 31.6756 37.675 33.5627V34.4168C37.675 36.3039 36.1453 37.8335 34.2582 37.8335H32.5498" stroke="black" stroke-width="2.8125" stroke-linecap="round"/>
</svg>
