<svg width="41" height="41" viewBox="0 0 41 41" fill="none" xmlns="http://www.w3.org/2000/svg">
<path d="M31.6055 30.4733C33.366 30.2149 34.6169 29.715 35.5833 28.7486C37.5849 26.7473 37.5849 23.5259 37.5849 17.0834C37.5849 10.6409 37.5849 7.41963 35.5833 5.41818C33.5819 3.41675 30.3604 3.41675 23.9177 3.41675H17.0841C10.6414 3.41675 7.42002 3.41675 5.4185 5.41818C3.41699 7.41963 3.41699 10.6409 3.41699 17.0834C3.41699 23.5259 3.41699 26.7473 5.4185 28.7486C6.79919 30.1293 8.76034 30.5576 11.959 30.6903" stroke="black" stroke-width="2.8125" stroke-linecap="round"/>
<path d="M29.0429 11.9583H11.959" stroke="black" stroke-width="2.8125" stroke-linecap="round" stroke-linejoin="round"/>
<path d="M24.7719 24.7708C24.7719 27.1295 22.8597 29.0417 20.501 29.0417C18.1422 29.0417 16.23 27.1295 16.23 24.7708C16.23 22.4121 18.1422 20.5 20.501 20.5C22.8597 20.5 24.7719 22.4121 24.7719 24.7708Z" stroke="black" stroke-width="2.8125"/>
<path d="M16.23 24.7708C16.23 31.7167 19.1722 35.6539 20.501 37.5833L23.0636 32.4583L26.0532 34.1666L29.0429 35.8749C27.7878 34.66 26.4903 30.8304 26.4903 30.8304" stroke="black" stroke-width="2.8125" stroke-linecap="round" stroke-linejoin="round"/>
</svg>
