<svg width="18" height="19" viewBox="0 0 18 19" fill="none" xmlns="http://www.w3.org/2000/svg">
<path d="M3.75 3.23438H14.25C14.6478 3.23438 15.0294 3.39241 15.3107 3.67371C15.592 3.95502 15.75 4.33655 15.75 4.73438V15.2344C15.75 15.6322 15.592 16.0137 15.3107 16.295C15.0294 16.5763 14.6478 16.7344 14.25 16.7344H3.75C3.35218 16.7344 2.97064 16.5763 2.68934 16.295C2.40804 16.0137 2.25 15.6322 2.25 15.2344V4.73438C2.25 4.33655 2.40804 3.95502 2.68934 3.67371C2.97064 3.39241 3.35218 3.23438 3.75 3.23438ZM13.5 4.73438H11.625C10.9288 4.73438 10.2611 5.01094 9.76884 5.50322C9.27656 5.9955 9 6.66318 9 7.35938V9.23438H7.5V11.4844H9V16.7344H11.25V11.4844H13.5V9.23438H11.25V7.73438C11.25 7.53546 11.329 7.3447 11.4697 7.20405C11.6103 7.06339 11.8011 6.98438 12 6.98438H13.5V4.73438Z" fill="white"/>
</svg>
