<svg width="19" height="19" viewBox="0 0 19 19" fill="none" xmlns="http://www.w3.org/2000/svg">
<path d="M5.96011 2.48438H12.2601C14.6601 2.48438 16.6101 4.43438 16.6101 6.83438V13.1344C16.6101 14.2881 16.1518 15.3945 15.336 16.2103C14.5202 17.0261 13.4138 17.4844 12.2601 17.4844H5.96011C3.56011 17.4844 1.61011 15.5344 1.61011 13.1344V6.83438C1.61011 5.68068 2.06841 4.57424 2.88419 3.75846C3.69998 2.94268 4.80642 2.48438 5.96011 2.48438ZM5.81011 3.98438C5.09402 3.98438 4.40727 4.26884 3.90092 4.77519C3.39457 5.28153 3.11011 5.96829 3.11011 6.68437V13.2844C3.11011 14.7769 4.31761 15.9844 5.81011 15.9844H12.4101C13.1262 15.9844 13.8129 15.6999 14.3193 15.1936C14.8256 14.6872 15.1101 14.0005 15.1101 13.2844V6.68437C15.1101 5.19187 13.9026 3.98438 12.4101 3.98438H5.81011ZM13.0476 5.10938C13.2962 5.10938 13.5347 5.20815 13.7105 5.38396C13.8863 5.55978 13.9851 5.79823 13.9851 6.04688C13.9851 6.29552 13.8863 6.53397 13.7105 6.70979C13.5347 6.8856 13.2962 6.98438 13.0476 6.98438C12.799 6.98438 12.5605 6.8856 12.3847 6.70979C12.2089 6.53397 12.1101 6.29552 12.1101 6.04688C12.1101 5.79823 12.2089 5.55978 12.3847 5.38396C12.5605 5.20815 12.799 5.10938 13.0476 5.10938ZM9.11011 6.23438C10.1047 6.23438 11.0585 6.62946 11.7618 7.33272C12.465 8.03599 12.8601 8.98981 12.8601 9.98438C12.8601 10.9789 12.465 11.9328 11.7618 12.636C11.0585 13.3393 10.1047 13.7344 9.11011 13.7344C8.11555 13.7344 7.16172 13.3393 6.45846 12.636C5.7552 11.9328 5.36011 10.9789 5.36011 9.98438C5.36011 8.98981 5.7552 8.03599 6.45846 7.33272C7.16172 6.62946 8.11555 6.23438 9.11011 6.23438ZM9.11011 7.73438C8.51337 7.73438 7.94107 7.97143 7.51912 8.39338C7.09716 8.81534 6.86011 9.38764 6.86011 9.98438C6.86011 10.5811 7.09716 11.1534 7.51912 11.5754C7.94107 11.9973 8.51337 12.2344 9.11011 12.2344C9.70684 12.2344 10.2791 11.9973 10.7011 11.5754C11.1231 11.1534 11.3601 10.5811 11.3601 9.98438C11.3601 9.38764 11.1231 8.81534 10.7011 8.39338C10.2791 7.97143 9.70684 7.73438 9.11011 7.73438Z" fill="white"/>
</svg>
