<svg width="42" height="41" viewBox="0 0 42 41" fill="none" xmlns="http://www.w3.org/2000/svg">
<path d="M3.50732 33.3126C3.50732 31.2993 3.50732 30.2926 4.25789 29.6672C5.00846 29.0417 6.21648 29.0417 8.63251 29.0417C11.0485 29.0417 12.2566 29.0417 13.0071 29.6672C13.7577 30.2926 13.7577 31.2993 13.7577 33.3126C13.7577 35.3259 13.7577 36.3326 13.0071 36.958C12.2566 37.5834 11.0485 37.5834 8.63251 37.5834C6.21648 37.5834 5.00846 37.5834 4.25789 36.958C3.50732 36.3326 3.50732 35.3259 3.50732 33.3126Z" stroke="black" stroke-width="3"/>
<path d="M27.4248 33.3126C27.4248 31.2993 27.4248 30.2926 28.1753 29.6672C28.926 29.0417 30.134 29.0417 32.55 29.0417C34.966 29.0417 36.174 29.0417 36.9247 29.6672C37.6752 30.2926 37.6752 31.2993 37.6752 33.3126C37.6752 35.3259 37.6752 36.3326 36.9247 36.958C36.174 37.5834 34.966 37.5834 32.55 37.5834C30.134 37.5834 28.926 37.5834 28.1753 36.958C27.4248 36.3326 27.4248 35.3259 27.4248 33.3126Z" stroke="black" stroke-width="3"/>
<path d="M32.5498 29.0417C32.5498 24.8017 31.2791 23.9167 25.1906 23.9167H15.9916C9.90301 23.9167 8.63232 24.8017 8.63232 29.0417" stroke="black" stroke-width="3" stroke-linecap="round" stroke-linejoin="round"/>
<path d="M20.5911 11.1042L22.2995 8.54175M28.2789 11.1042C28.2789 15.3499 24.837 18.7917 20.5911 18.7917C16.3453 18.7917 12.9033 15.3499 12.9033 11.1042C12.9033 6.85856 16.3453 3.41675 20.5911 3.41675C24.837 3.41675 28.2789 6.85856 28.2789 11.1042Z" stroke="black" stroke-width="3" stroke-linecap="round"/>
</svg>
