<svg width="18" height="19" viewBox="0 0 18 19" fill="none" xmlns="http://www.w3.org/2000/svg">
<path d="M14.25 3.23438C14.6478 3.23438 15.0294 3.39241 15.3107 3.67371C15.592 3.95502 15.75 4.33655 15.75 4.73438V15.2344C15.75 15.6322 15.592 16.0137 15.3107 16.295C15.0294 16.5763 14.6478 16.7344 14.25 16.7344H3.75C3.35218 16.7344 2.97064 16.5763 2.68934 16.295C2.40804 16.0137 2.25 15.6322 2.25 15.2344V4.73438C2.25 4.33655 2.40804 3.95502 2.68934 3.67371C2.97064 3.39241 3.35218 3.23438 3.75 3.23438H14.25ZM13.875 14.8594V10.8844C13.875 10.2359 13.6174 9.61403 13.1589 9.1555C12.7003 8.69697 12.0785 8.43937 11.43 8.43937C10.7925 8.43937 10.05 8.82937 9.69 9.41437V8.58187H7.5975V14.8594H9.69V11.1619C9.69 10.5844 10.155 10.1119 10.7325 10.1119C11.011 10.1119 11.278 10.2225 11.475 10.4194C11.6719 10.6163 11.7825 10.8834 11.7825 11.1619V14.8594H13.875ZM5.16 7.40438C5.49417 7.40438 5.81466 7.27163 6.05095 7.03533C6.28725 6.79903 6.42 6.47855 6.42 6.14438C6.42 5.44688 5.8575 4.87688 5.16 4.87688C4.82384 4.87688 4.50144 5.01041 4.26374 5.24812C4.02604 5.48582 3.8925 5.80821 3.8925 6.14438C3.8925 6.84188 4.4625 7.40438 5.16 7.40438ZM6.2025 14.8594V8.58187H4.125V14.8594H6.2025Z" fill="white"/>
</svg>
