<svg width="42" height="42" viewBox="0 0 42 42" fill="none" xmlns="http://www.w3.org/2000/svg">
<path d="M23.1195 36.125H21.4111C13.3576 36.125 9.33091 36.125 6.82904 33.6231C4.32715 31.1215 4.32715 27.0948 4.32715 19.0417V13.8215C4.32715 10.7183 4.32715 9.16675 4.97688 8.00252C5.44003 7.17263 6.12484 6.48784 6.95476 6.02471C8.11903 5.375 9.67066 5.375 12.7739 5.375C14.7621 5.375 15.7561 5.375 16.6263 5.70131C18.6131 6.44633 19.4324 8.25112 20.329 10.0441L21.4111 12.2083M14.5775 12.2083H29.526C33.125 12.2083 34.9245 12.2083 36.2172 13.072C36.7769 13.446 37.2573 13.9264 37.6313 14.486C38.4602 15.7265 38.4937 17.4338 38.495 20.75" stroke="black" stroke-width="2.8125" stroke-linecap="round"/>
<path d="M38.4948 36.1252L34.8267 32.4572M34.8267 32.4572C35.0225 32.2616 35.2043 32.0522 35.3708 31.8304C36.1065 30.8515 36.5423 29.6345 36.5423 28.3157C36.5423 25.0808 33.9199 22.4585 30.685 22.4585C27.45 22.4585 24.8276 25.0808 24.8276 28.3157C24.8276 31.5504 27.45 34.1727 30.685 34.1727C32.3024 34.1727 33.7668 33.5172 34.8267 32.4572Z" stroke="black" stroke-width="2.8125" stroke-linecap="round" stroke-linejoin="round"/>
</svg>
