<svg width="42" height="42" viewBox="0 0 42 42" fill="none" xmlns="http://www.w3.org/2000/svg">
<path d="M20.6807 7.08317V3.6665" stroke="black" stroke-width="2.8125" stroke-linecap="round" stroke-linejoin="round"/>
<path d="M32.6397 37.8333C32.6397 31.2289 27.2856 25.875 20.6809 25.875C14.0763 25.875 8.72217 31.2289 8.72217 37.8333" stroke="black" stroke-width="2.8125" stroke-linecap="round" stroke-linejoin="round"/>
<path d="M16.4102 13.0625H16.4272M24.935 13.0625H24.9521" stroke="black" stroke-width="3.75" stroke-linecap="round" stroke-linejoin="round"/>
<path d="M9.57617 11.6391C9.57617 10.5799 9.57617 10.0503 9.6926 9.61586C10.0085 8.4368 10.9295 7.51584 12.1086 7.19992C12.5431 7.0835 13.0727 7.0835 14.1319 7.0835H27.2295C28.2887 7.0835 28.8183 7.0835 29.2528 7.19992C30.4319 7.51584 31.3529 8.4368 31.669 9.61586C31.7853 10.0503 31.7853 10.5799 31.7853 11.6391C31.7853 13.7573 31.7853 14.8165 31.5524 15.6854C30.9205 18.0435 29.0785 19.8854 26.7204 20.5173C25.8514 20.7502 24.7922 20.7502 22.6739 20.7502H18.6875C16.5693 20.7502 15.5101 20.7502 14.6411 20.5173C12.2829 19.8854 10.4409 18.0435 9.80903 15.6854C9.57617 14.8165 9.57617 13.7573 9.57617 11.6391Z" stroke="black" stroke-width="2.8125" stroke-linecap="round" stroke-linejoin="round"/>
</svg>
