<svg width="41" height="42" viewBox="0 0 41 42" fill="none" xmlns="http://www.w3.org/2000/svg">
<path d="M29.0429 20.7502C29.0429 25.4676 25.2185 29.2918 20.501 29.2918C15.7834 29.2918 11.959 25.4676 11.959 20.7502C11.959 16.0327 15.7834 12.2085 20.501 12.2085" stroke="black" stroke-width="2.8125" stroke-linecap="round"/>
<path d="M23.9177 4.00824C22.8138 3.78414 21.671 3.6665 20.5009 3.6665C11.0657 3.6665 3.41699 11.315 3.41699 20.7498C3.41699 30.1846 11.0657 37.8332 20.5009 37.8332C29.9361 37.8332 37.5849 30.1846 37.5849 20.7498C37.5849 19.5798 37.4672 18.4371 37.2432 17.3332" stroke="black" stroke-width="2.8125" stroke-linecap="round"/>
<path d="M20.5522 20.686L28.3304 12.9081M33.7241 7.67212L32.779 4.27742C32.605 3.71816 31.932 3.49529 31.4784 3.86595C29.025 5.87078 26.3524 8.5712 28.5351 12.8306C32.9326 14.8811 35.4431 12.1159 37.368 9.79161C37.751 9.32917 37.52 8.63399 36.9433 8.46723L33.7241 7.67212Z" stroke="black" stroke-width="2.8125" stroke-linecap="round" stroke-linejoin="round"/>
</svg>
