<svg width="18" height="19" viewBox="0 0 18 19" fill="none" xmlns="http://www.w3.org/2000/svg">
<path d="M16.845 5.48438C16.2675 5.74688 15.645 5.91938 15 6.00187C15.66 5.60438 16.17 4.97437 16.41 4.21687C15.7875 4.59187 15.0975 4.85438 14.37 5.00438C13.7775 4.35938 12.945 3.98438 12 3.98438C10.2375 3.98438 8.79753 5.42438 8.79753 7.20187C8.79753 7.45688 8.82753 7.70438 8.88003 7.93688C6.21003 7.80188 3.83253 6.51937 2.25003 4.57687C1.97253 5.04937 1.81503 5.60438 1.81503 6.18937C1.81503 7.30687 2.37753 8.29688 3.24753 8.85938C2.71503 8.85938 2.22003 8.70937 1.78503 8.48438V8.50688C1.78503 10.0669 2.89503 11.3719 4.36503 11.6644C3.89307 11.7935 3.3976 11.8115 2.91753 11.7169C3.12123 12.3562 3.52018 12.9157 4.05829 13.3166C4.5964 13.7175 5.24661 13.9396 5.91753 13.9519C4.78025 14.8522 3.37053 15.3389 1.92003 15.3319C1.66503 15.3319 1.41003 15.3169 1.15503 15.2869C2.58003 16.2019 4.27503 16.7344 6.09003 16.7344C12 16.7344 15.2475 11.8294 15.2475 7.57687C15.2475 7.43438 15.2475 7.29937 15.24 7.15687C15.87 6.70687 16.41 6.13687 16.845 5.48438Z" fill="white"/>
</svg>
